<svg xmlns="http://www.w3.org/2000/svg" width="916" height="1145" viewBox="0 0 916 1145">
<g>
<path d="M 417.86 550.53 C417.60,550.27 419.10,541.60 421.20,531.28 C425.65,509.39 432.00,476.16 432.00,474.80 C432.00,472.13 436.02,475.91 447.91,489.76 C457.29,500.69 460.33,504.23 460.78,508.08 C461.00,509.93 460.61,511.85 460.04,514.70 C459.51,517.34 457.93,525.58 456.53,533.00 C455.12,540.42 453.75,547.51 453.47,548.75 C452.97,550.98 452.79,551.00 435.65,551.00 C426.12,551.00 418.12,550.79 417.86,550.53 ZM 502.55 454.17 C502.19,453.46 501.84,452.73 501.48,452.00 C495.44,439.62 490.26,429.27 489.97,429.00 C489.68,428.73 486.09,421.45 481.99,412.84 C474.72,397.56 474.45,397.17 471.02,396.60 C470.88,396.58 470.72,396.56 470.55,396.54 C497.86,396.68 531.33,397.13 531.84,397.56 C532.02,397.71 530.78,404.62 529.09,412.90 C527.39,421.18 526.00,428.19 526.00,428.48 C526.00,428.77 518.38,429.00 509.06,429.00 C499.66,429.00 491.86,429.42 491.54,429.93 C491.27,430.37 496.87,442.45 502.55,454.17 ZM 451.57 432.50 L 456.09 432.20 L 460.68 431.90 L 465.41 441.69 C468.02,447.08 470.38,452.83 470.67,454.49 C470.95,456.08 471.23,457.26 472.35,459.93 C471.73,459.98 470.84,460.91 470.56,462.25 C469.15,468.83 463.00,499.85 463.00,500.38 C463.00,500.72 462.56,501.00 462.02,501.00 C460.65,501.00 436.81,451.79 437.74,450.87 C438.39,450.22 453.07,448.00 456.72,448.00 C458.72,448.00 458.36,446.83 452.50,434.46 C452.18,433.79 451.88,433.13 451.57,432.50 ZM 476.67 592.33 C475.47,591.13 475.93,575.47 477.20,574.20 C477.98,573.42 482.09,573.00 489.00,573.00 C495.91,573.00 500.02,573.42 500.80,574.20 C501.52,574.92 502.00,578.42 502.00,583.00 C502.00,587.58 501.52,591.08 500.80,591.80 C499.52,593.08 477.90,593.56 476.67,592.33 ZM 528.25 593.29 C527.36,592.97 527.00,589.94 527.00,582.92 L 527.00 573.00 L 538.94 573.00 C547.03,573.00 551.12,573.38 551.61,574.18 C552.67,575.89 553.04,592.86 552.03,593.48 C550.01,594.73 548.00,592.67 548.00,589.35 L 548.00 585.92 L 539.75 586.21 L 531.50 586.50 L 531.17 589.50 C530.80,592.94 530.03,593.94 528.25,593.29 ZM 368.12 593.07 C367.29,592.56 367.01,589.43 367.21,582.92 C367.50,573.59 367.53,573.50 370.12,573.20 C372.92,572.87 374.56,574.45 380.80,583.45 L 384.11 588.21 L 387.63 582.35 C392.64,574.02 393.89,572.85 397.45,573.20 L 400.50 573.50 L 400.79 581.74 C401.11,590.83 399.87,594.97 397.43,592.94 C396.46,592.14 396.00,589.69 396.00,585.38 C396.00,581.87 395.63,579.00 395.17,579.00 C394.71,579.00 393.30,581.23 392.02,583.96 C390.74,586.68 388.49,590.07 387.02,591.48 C384.35,594.04 384.33,594.04 381.92,592.13 C380.59,591.08 378.15,587.93 376.50,585.13 C374.85,582.33 373.16,580.03 372.75,580.02 C372.34,580.01 372.00,582.88 372.00,586.39 C372.00,592.83 370.87,594.77 368.12,593.07 ZM 426.00 583.00 L 426.00 573.00 L 437.30 573.00 C444.76,573.00 449.01,573.41 449.80,574.20 C450.46,574.86 451.00,577.24 451.00,579.50 C451.00,581.76 450.46,584.14 449.80,584.80 C449.04,585.56 445.20,586.00 439.30,586.00 L 430.00 586.00 L 430.00 589.50 C430.00,592.33 429.62,593.00 428.00,593.00 C426.13,593.00 426.00,592.33 426.00,583.00 ZM 630.51 592.75 C627.14,590.86 629.51,590.06 639.25,589.78 C649.02,589.51 649.52,589.39 649.82,587.25 C650.13,585.07 649.89,585.00 641.50,585.00 C631.48,585.00 628.99,584.05 629.01,580.21 C629.03,577.30 629.03,575.56 629.88,574.53 C631.15,572.99 634.29,573.00 642.12,573.00 C653.26,573.00 654.00,573.12 654.00,574.96 C654.00,576.76 653.18,576.95 644.25,577.21 C635.26,577.48 634.50,577.66 634.50,579.50 C634.50,581.34 635.21,581.51 643.50,581.63 C651.89,581.75 652.58,581.92 653.74,584.13 C655.39,587.31 655.31,588.41 653.25,590.81 C651.76,592.54 650.03,592.90 641.76,593.22 C636.40,593.42 631.34,593.21 630.51,592.75 ZM 496.80 589.14 C497.70,588.57 498.01,586.46 497.80,582.41 L 497.50 576.50 L 480.50 576.50 L 480.19 581.88 C479.74,589.86 479.88,590.00 488.22,589.98 C492.22,589.98 496.09,589.60 496.80,589.14 ZM 589.69 593.35 C589.31,592.98 589.00,589.14 589.00,584.83 L 589.00 577.00 L 584.08 577.00 C578.21,577.00 576.00,576.28 576.00,574.37 C576.00,573.19 578.46,572.99 590.17,573.22 C600.41,573.42 604.45,573.85 604.75,574.75 C605.02,575.56 604.13,576.00 602.21,576.00 C600.58,576.00 597.86,576.28 596.16,576.62 L 593.08 577.23 L 592.79 585.29 C592.52,592.66 591.54,595.21 589.69,593.35 ZM 446.82 579.25 L 446.50 576.50 L 439.00 576.81 C431.10,577.14 429.35,577.87 430.34,580.43 C430.81,581.68 432.61,582.00 439.04,582.00 L 447.13 582.00 ZM 337.00 583.00 C337.00,573.86 337.16,573.00 338.89,573.00 C341.63,573.00 342.08,575.12 341.35,584.58 C340.79,591.88 340.46,593.00 338.85,593.00 C337.17,593.00 337.00,592.07 337.00,583.00 ZM 547.80 579.38 C548.19,576.66 545.84,576.02 538.00,576.73 C532.48,577.23 532.00,577.47 532.00,579.68 C532.00,582.04 532.15,582.08 539.75,581.79 C546.77,581.53 547.53,581.30 547.80,579.38 ZM 520.03 470.83 C517.36,473.92 515.80,475.49 514.80,475.96 C515.94,475.19 517.93,473.26 520.03,470.83 ZM 478.33 472.84 C479.26,474.80 480.32,477.01 481.52,479.50 C483.56,483.76 485.91,488.66 488.02,493.07 C485.74,488.33 483.15,482.91 480.86,478.15 C479.97,476.31 479.12,474.52 478.33,472.84 ZM 439.74 407.09 C440.08,407.79 440.43,408.55 440.81,409.35 C440.44,408.58 440.08,407.82 439.74,407.09 ZM 435.66 396.76 C435.62,396.83 435.63,396.99 435.68,397.24 C435.62,396.99 435.61,396.83 435.64,396.77 C435.65,396.76 435.65,396.76 435.66,396.76 ZM 513.49 475.70 C513.40,475.56 513.25,475.32 513.06,474.98 C513.22,475.26 513.37,475.50 513.49,475.70 Z" fill="rgba(250,250,250,1)"/>
<path d="M 224.03 583.04 C223.22,582.53 222.78,581.88 223.06,581.61 C223.33,581.33 244.47,581.03 270.03,580.94 C308.69,580.80 316.50,581.00 316.50,582.14 C316.50,583.26 308.64,583.54 271.00,583.74 C244.00,583.88 224.90,583.60 224.03,583.04 ZM 678.67 583.33 C678.30,582.97 678.00,582.00 678.00,581.19 C678.00,579.90 682.44,579.78 712.04,580.23 C730.76,580.51 746.33,580.99 746.64,581.30 C748.93,583.60 743.90,584.00 712.61,584.00 C694.31,584.00 679.03,583.70 678.67,583.33 ZM 551.44 549.71 C551.16,548.98 554.61,530.18 559.12,507.94 C563.62,485.70 567.51,465.92 567.76,464.00 C568.31,459.73 570.95,457.08 543.63,488.15 C531.71,501.71 521.26,513.07 520.40,513.40 C517.78,514.40 501.00,514.07 498.95,512.97 C497.89,512.41 495.16,508.02 492.87,503.22 C490.58,498.43 485.47,487.75 481.52,479.50 C471.94,459.53 471.28,458.00 470.67,454.49 C470.38,452.83 468.02,447.08 465.41,441.69 L 460.68 431.90 L 456.09 432.20 L 451.50 432.50 L 447.38 423.50 C445.11,418.55 441.44,410.67 439.23,406.00 C437.01,401.33 435.41,397.16 435.66,396.75 C436.20,395.87 465.86,395.75 471.02,396.60 C474.45,397.17 474.72,397.56 481.99,412.84 C486.09,421.45 489.68,428.73 489.97,429.00 C490.26,429.27 495.44,439.62 501.48,452.00 C507.52,464.38 512.96,475.08 513.55,475.78 C514.40,476.78 515.85,475.67 520.07,470.79 C538.92,448.98 578.73,403.97 581.57,401.25 L 584.97 398.00 L 599.93 398.00 C608.15,398.00 615.07,398.34 615.31,398.75 C615.54,399.16 612.85,413.90 609.34,431.50 C605.82,449.10 601.17,472.50 598.99,483.50 C592.85,514.58 587.13,543.15 586.28,547.00 L 585.50 550.50 L 568.73 550.77 C555.46,550.99 551.85,550.77 551.44,549.71 ZM 388.73 431.84 C387.51,431.08 389.04,425.02 394.85,407.50 C398.26,397.22 398.68,396.48 401.31,396.18 C402.86,396.00 404.75,396.37 405.51,397.01 C408.02,399.09 425.25,430.15 424.36,431.00 C423.32,432.00 390.25,432.78 388.73,431.84 Z" fill="rgba(249,124,6,1)"/>
</g>
</svg>