<svg xmlns="http://www.w3.org/2000/svg" viewBox="80 350 760 265" width="760" height="265">
  <defs>
    <clipPath id="mark-clip-grp" clipPathUnits="userSpaceOnUse">
      <rect x="0" y="350" width="916" height="213"/>
    </clipPath>
  </defs>

  <!-- Mark TM (símbolo) -->
  <g clip-path="url(#mark-clip-grp)">
    <path d="M 417.86 550.53 C417.60,550.27 419.10,541.60 421.20,531.28 C425.65,509.39 432.00,476.16 432.00,474.80 C432.00,472.13 436.02,475.91 447.91,489.76 C457.29,500.69 460.33,504.23 460.78,508.08 C461.00,509.93 460.61,511.85 460.04,514.70 C459.51,517.34 457.93,525.58 456.53,533.00 C455.12,540.42 453.75,547.51 453.47,548.75 C452.97,550.98 452.79,551.00 435.65,551.00 C426.12,551.00 418.12,550.79 417.86,550.53 ZM 502.55 454.17 C502.19,453.46 501.84,452.73 501.48,452.00 C495.44,439.62 490.26,429.27 489.97,429.00 C489.68,428.73 486.09,421.45 481.99,412.84 C474.72,397.56 474.45,397.17 471.02,396.60 C470.88,396.58 470.72,396.56 470.55,396.54 C497.86,396.68 531.33,397.13 531.84,397.56 C532.02,397.71 530.78,404.62 529.09,412.90 C527.39,421.18 526.00,428.19 526.00,428.48 C526.00,428.77 518.38,429.00 509.06,429.00 C499.66,429.00 491.86,429.42 491.54,429.93 C491.27,430.37 496.87,442.45 502.55,454.17 ZM 451.57 432.50 L 456.09 432.20 L 460.68 431.90 L 465.41 441.69 C468.02,447.08 470.38,452.83 470.67,454.49 C470.95,456.08 471.23,457.26 472.35,459.93 C471.73,459.98 470.84,460.91 470.56,462.25 C469.15,468.83 463.00,499.85 463.00,500.38 C463.00,500.72 462.56,501.00 462.02,501.00 C460.65,501.00 436.81,451.79 437.74,450.87 C438.39,450.22 453.07,448.00 456.72,448.00 C458.72,448.00 458.36,446.83 452.50,434.46 C452.18,433.79 451.88,433.13 451.57,432.50 Z" fill="rgba(250,250,250,1)"/>
    <path d="M 551.44 549.71 C551.16,548.98 554.61,530.18 559.12,507.94 C563.62,485.70 567.51,465.92 567.76,464.00 C568.31,459.73 570.95,457.08 543.63,488.15 C531.71,501.71 521.26,513.07 520.40,513.40 C517.78,514.40 501.00,514.07 498.95,512.97 C497.89,512.41 495.16,508.02 492.87,503.22 C490.58,498.43 485.47,487.75 481.52,479.50 C471.94,459.53 471.28,458.00 470.67,454.49 C470.38,452.83 468.02,447.08 465.41,441.69 L 460.68 431.90 L 456.09 432.20 L 451.50 432.50 L 447.38 423.50 C445.11,418.55 441.44,410.67 439.23,406.00 C437.01,401.33 435.41,397.16 435.66,396.75 C436.20,395.87 465.86,395.75 471.02,396.60 C474.45,397.17 474.72,397.56 481.99,412.84 C486.09,421.45 489.68,428.73 489.97,429.00 C490.26,429.27 495.44,439.62 501.48,452.00 C507.52,464.38 512.96,475.08 513.55,475.78 C514.40,476.78 515.85,475.67 520.07,470.79 C538.92,448.98 578.73,403.97 581.57,401.25 L 584.97 398.00 L 599.93 398.00 C608.15,398.00 615.07,398.34 615.31,398.75 C615.54,399.16 612.85,413.90 609.34,431.50 C605.82,449.10 601.17,472.50 598.99,483.50 C592.85,514.58 587.13,543.15 586.28,547.00 L 585.50 550.50 L 568.73 550.77 C555.46,550.99 551.85,550.77 551.44,549.71 ZM 388.73 431.84 C387.51,431.08 389.04,425.02 394.85,407.50 C398.26,397.22 398.68,396.48 401.31,396.18 C402.86,396.00 404.75,396.37 405.51,397.01 C408.02,399.09 425.25,430.15 424.36,431.00 C423.32,432.00 390.25,432.78 388.73,431.84 Z" fill="rgba(249,124,6,1)"/>
  </g>

  <!-- Linhas separadoras laterais -->
  <line x1="244" y1="581" x2="370" y2="581" stroke="#F97C06" stroke-width="1.5" opacity="0.75"/>
  <line x1="630" y1="581" x2="756" y2="581" stroke="#F97C06" stroke-width="1.5" opacity="0.75"/>

  <!-- Texto GROUP -->
  <text
    x="500"
    y="588"
    text-anchor="middle"
    fill="rgba(250,250,250,0.82)"
    font-size="22"
    letter-spacing="22"
    font-family="Inter, -apple-system, BlinkMacSystemFont, Segoe UI, sans-serif"
    font-weight="300"
  >GROUP</text>
</svg>
